:SAMPLES-PER-SECOND 30
:FRAME-RANGE 1-2775
:FULLY-SPECIFIED
:DEGREES
2255
root  -38.8451 38.3466 -45.6789 174.928 22.2226 172.329
RightUpLeg  -15.7904 -3.20618 -0.579234
RightLeg  -6.63146 -28.2769 9.30739
RightFoot  -4.93202 -0.86179 14.7134
RightToes  -5.28216e-011 1.2921e-014 -6.02303e-014
Spine  2.62707 -5.31389 -15.3861
Spine1  2.02261 -6.77325 6.20313
HEad  -2.99083 -61.3946 7.99862
LeftShoulder1  2.171 -2.44532 -30.458
LeftArm  18.8286 -5.47016 -34.8117
LeftForeArm  6.58679 -30.4852 -6.29498
LeftHand  0.38073 -5.16559 -3.87686
RightShoulder  4.75338 4.69679 50.7979
RightArm  53.6599 -3.87039 19.1148
RightForeArm  -5.08876 23.4481 5.3256
RightHand  0.434257 5.77976 4.17668
LeftUpLeg  11.04 7.51094 -7.76988
LeftLeg  11.9063 6.57658 -2.15895
LeftFoot  -18.4929 -0.00694513 -1.88551
LeftToes  -2.158e-010 -1.26819e-010 -1.05346e-011
2256
root  -38.4132 38.0026 -47.3925 174.656 24.8126 171.75
RightUpLeg  -15.1303 -2.27551 1.06585
RightLeg  -6.95952 -32.8918 10.4326
RightFoot  -4.31728 -0.875125 13.7165
RightToes  -5.28216e-011 1.2921e-014 -6.02303e-014
Spine  1.63195 -5.8826 -15.3193
Spine1  1.79539 -7.51115 7.36435
HEad  -6.3141 -63.8887 9.62183
LeftShoulder1  2.12795 -2.35293 -30.2958
LeftArm  16.6304 -1.08501 -33.0135
LeftForeArm  8.34065 -32.4781 -6.70182
LeftHand  0.302862 -4.84922 -3.13509
RightShoulder  4.62776 4.54991 50.3656
RightArm  55.1316 -3.15847 18.7511
RightForeArm  -4.36739 22.9749 5.39309
RightHand  0.567649 6.11816 5.37481
LeftUpLeg  13.1331 8.51828 -8.18718
LeftLeg  13.5012 7.81967 -2.43065
LeftFoot  -20.0821 -0.175253 -3.86741
LeftToes  -2.158e-010 -1.26819e-010 -1.05346e-011
2257
root  -37.9582 37.861 -49.0944 174.691 27.7629 171.995
RightUpLeg  -14.2412 -2.39634 3.28309
RightLeg  -2.77533 -29.7493 9.24962
RightFoot  -5.57233 -0.314636 5.48638
RightToes  -5.28216e-011 1.2921e-014 -6.02303e-014
Spine  0.889689 -6.34167 -13.2332
Spine1  1.6754 -8.18378 7.89596
HEad  -8.39616 -64.6165 9.85785
LeftShoulder1  2.07459 -2.22209 -30.1914
LeftArm  17.2469 3.38785 -31.5033
LeftForeArm  7.44703 -32.1221 -6.66083
LeftHand  0.334843 -5.30669 -3.31973
RightShoulder  4.27297 4.01305 49.838
RightArm  54.9566 -2.90381 18.3892
RightForeArm  -4.37965 22.2474 5.77405
RightHand  0.6407 6.28102 6.01368
LeftUpLeg  15.5379 15.8498 -5.11819
LeftLeg  15.7269 2.01057 -3.66288
LeftFoot  -19.8291 -0.378272 -6.69273
LeftToes  -2.158e-010 -1.26819e-010 -1.05346e-011
2258
root  -37.3946 37.8135 -50.7504 175.005 30.6307 173.408
RightUpLeg  -16.5766 -1.86513 6.69505
RightLeg  7.00396 -30.3939 3.39305
RightFoot  -4.82251 0.569288 -10.5268
RightToes  -5.28216e-011 1.2921e-014 -6.02303e-014
Spine  0.710425 -6.56592 -10.3731
Spine1  1.48831 -8.7409 9.02242
HEad  -10.2344 -64.367 9.56051
LeftShoulder1  2.04037 -2.08389 -30.4772
LeftArm  20.9919 6.68913 -30.4199
LeftForeArm  4.06583 -29.3282 -6.14932
LeftHand  0.379687 -5.46416 -3.74097
RightShoulder  3.60951 2.85337 49.801
RightArm  53.3725 -2.23883 17.5799
RightForeArm  -5.2576 21.0616 6.80996
RightHand  0.591637 6.22893 5.55586
LeftUpLeg  18.0604 30.7417 3.54473
LeftLeg  23.3271 -12.866 -5.68346
LeftFoot  -17.3302 -0.525265 -11.9851
LeftToes  -2.158e-010 -1.26819e-010 -1.05346e-011
2259
root  -36.7079 37.5629 -52.2939 174.975 34.1208 174.803
RightUpLeg  -18.4968 -6.41776 12.5592
RightLeg  17.8475 -21.9569 -5.49514
RightFoot  -7.35815 0.443 -14.0732
RightToes  -5.28216e-011 1.2921e-014 -6.02303e-014
Spine  1.56507 -6.43586 -8.31959
Spine1  0.424365 -8.73273 10.3784
HEad  -11.5353 -63.4486 9.68086
LeftShoulder1  2.00042 -2.0854 -29.7423
LeftArm  26.6502 9.66471 -31.3857
LeftForeArm  -1.20632 -24.694 -5.34505
LeftHand  0.455251 -5.34655 -4.60468
RightShoulder  3.57075 2.72012 50.3189
RightArm  47.1262 -1.86349 16.4582
RightForeArm  -3.62673 18.4326 9.36037
RightHand  0.502333 6.00534 4.77197
LeftUpLeg  15.6378 31.8559 8.49291
LeftLeg  36.4068 -14.385 -10.7912
LeftFoot  -8.728 0.528137 -20.677
LeftToes  -2.158e-010 -1.26819e-010 -1.05346e-011
2260
root  -36.1875 36.9684 -53.4467 175.948 36.9793 177.226
RightUpLeg  -20.1791 -4.82239 16.1032
RightLeg  26.7309 -20.0184 -10.8272
RightFoot  -11.0962 -0.0458347 -13.3559
RightToes  -5.28216e-011 1.2921e-014 -6.02303e-014
Spine  3.01686 -7.0932 -5.77887
Spine1  0.649301 -9.2006 11.8958
HEad  -13.5485 -62.478 11.3309
LeftShoulder1  1.97719 -2.12027 -29.0963
LeftArm  28.4268 11.9928 -31.162
LeftForeArm  -3.85709 -20.5529 -6.99912
LeftHand  0.594522 -5.16355 -6.22379
RightShoulder  3.96705 3.2684 51.3466
RightArm  37.5806 -0.481547 15.6495
RightForeArm  1.10272 14.1611 12.8828
RightHand  0.442506 5.72813 4.28494
LeftUpLeg  7.77068 27.0391 10.1196
LeftLeg  51.75 -13.1597 -16.8365
LeftFoot  2.92733 3.2985 -26.0847
LeftToes  -2.158e-010 -1.26819e-010 -1.05346e-011
2261
root  -35.7856 36.3272 -54.4724 177.514 39.024 -179.914
RightUpLeg  -21.2486 -2.87171 18.5527
RightLeg  33.8843 -19.9012 -14.0602
RightFoot  -15.0317 -0.503401 -12.427
RightToes  -5.28216e-011 1.2921e-014 -6.02303e-014
Spine  4.06583 -8.11127 -3.30422
Spine1  1.96452 -10.0265 14.0071
HEad  -14.529 -62.5453 12.6117
LeftShoulder1  2.05222 -2.36087 -28.9323
LeftArm  22.608 13.0473 -30.2584
LeftForeArm  1.07612 -14.9929 -11.946
LeftHand  0.682147 -4.73786 -7.51393
RightShoulder  4.02586 3.29105 51.9189
RightArm  29.999 0.85397 15.6353
RightForeArm  5.0388 11.1105 14.5976
RightHand  0.364325 5.23554 3.66237
LeftUpLeg  -0.538146 20.9848 11.2892
LeftLeg  63.8927 -11.4616 -23.4299
LeftFoot  13.6535 5.80313 -26.1592
LeftToes  -2.158e-010 -1.26819e-010 -1.05346e-011
2262
root  -35.2099 36.3111 -55.6995 177.966 43.2567 -179.126
RightUpLeg  -18.9481 -0.313812 18.9958
RightLeg  35.6714 -18.6794 -14.1305
RightFoot  -17.2621 -0.70862 -11.408
RightToes  -5.28216e-011 1.2921e-014 -6.02303e-014
Spine  4.35203 -7.78524 -1.86012
Spine1  1.93268 -9.39361 14.3609
HEad  -12.7054 -63.4657 11.6358
LeftShoulder1  1.99418 -2.21182 -28.8256
LeftArm  16.2321 13.5838 -29.1602
LeftForeArm  7.47863 -8.31846 -15.9725
LeftHand  0.680296 -3.9936 -8.1406
RightShoulder  3.93168 3.01851 52.7994
RightArm  30.5662 0.768725 15.6244
RightForeArm  3.2518 11.8423 14.2233
RightHand  0.306795 4.94823 3.13786
LeftUpLeg  -6.47725 17.0302 11.7585
LeftLeg  70.0648 -7.42109 -21.0503
LeftFoot  10.6458 4.69829 -24.2025
LeftToes  -2.158e-010 -1.26819e-010 -1.05346e-011
2263
root  -34.536 36.5541 -56.9495 177.741 49.8298 -179.684
RightUpLeg  -15.3081 4.5812 18.4685
RightLeg  35.4294 -17.6232 -13.2924
RightFoot  -18.5926 -0.77471 -10.2146
RightToes  -5.28216e-011 1.2921e-014 -6.02303e-014
Spine  4.19603 -6.78442 -0.528806
Spine1  1.56476 -7.91405 13.1279
HEad  -10.1629 -63.3235 10.1488
LeftShoulder1  1.80147 -1.66094 -28.8098
LeftArm  11.5103 16.3991 -27.8761
LeftForeArm  10.3623 -5.19569 -16.9708
LeftHand  0.667986 -3.44168 -8.53082
RightShoulder  4.16487 3.29395 53.6238
RightArm  36.7484 0.252719 15.8382
RightForeArm  -1.28167 14.2596 12.9197
RightHand  0.332158 5.03319 3.38881
LeftUpLeg  -10.5569 15.114 11.7432
LeftLeg  71.4837 -4.63686 -14.4187
LeftFoot  10.0862 3.09685 -16.5978
LeftToes  -2.158e-010 -1.26819e-010 -1.05346e-011
2264
root  -33.8209 36.9783 -58.1669 176.501 56.4811 178.24
RightUpLeg  -11.4594 9.095 16.9701
RightLeg  33.6957 -16.1994 -11.5797
RightFoot  -19.2951 -0.783415 -9.37025
RightToes  -5.28216e-011 1.2921e-014 -6.02303e-014
Spine  3.94014 -6.02148 -0.173526
Spine1  1.05372 -6.89164 11.8715
HEad  -8.31113 -62.2451 8.77824
LeftShoulder1  1.65341 -1.20777 -29.0216
LeftArm  8.958 21.2132 -26.6367
LeftForeArm  9.27417 -5.86852 -16.5552
LeftHand  0.643901 -3.32227 -8.3376
RightShoulder  4.40403 3.68031 53.6455
RightArm  42.884 -0.325397 16.6642
RightForeArm  -3.46322 16.7318 10.9984
RightHand  0.496603 5.61563 4.90398
LeftUpLeg  -14.1173 13.1477 10.8415
LeftLeg  69.7318 -1.78841 -4.59447
LeftFoot  8.36268 1.42787 -8.50543
LeftToes  -2.158e-010 -1.26819e-010 -1.05346e-011
2265
root  -33.0833 37.4895 -59.333 174.135 63.2733 174.867
RightUpLeg  -7.67271 13.5021 15.0407
RightLeg  31.0371 -14.44 -9.4992
RightFoot  -19.3418 -0.76606 -9.06471
RightToes  -5.28216e-011 1.2921e-014 -6.02303e-014
Spine  3.5197 -5.29055 0.163037
Spine1  0.697637 -5.99545 10.1501
HEad  -7.78514 -60.759 7.97106
LeftShoulder1  1.57265 -0.928537 -29.4145
LeftArm  8.69733 25.9903 -25.9439
LeftForeArm  8.15305 -7.44161 -15.8749
LeftHand  0.606545 -3.13921 -8.02481
RightShoulder  4.4992 3.87837 53.3446
RightArm  49.5257 -0.867017 17.3905
RightForeArm  -6.94355 19.9778 7.97561
RightHand  0.737174 6.18214 7.03287
LeftUpLeg  -17.0461 11.3911 9.6513
LeftLeg  65.6039 1.22706 3.64179
LeftFoot  5.26895 0.0320956 -0.439229
LeftToes  -2.158e-010 -1.26819e-010 -1.05346e-011
2266
root  -32.3517 38.0049 -60.418 169.127 70.5554 168.847
RightUpLeg  -4.27518 17.5646 12.8311
RightLeg  28.0941 -11.7598 -7.33758
RightFoot  -18.9389 -0.740265 -9.19995
RightToes  -5.28216e-011 1.2921e-014 -6.02303e-014
Spine  3.25318 -4.33025 0.448072
Spine1  0.530639 -4.89394 7.92941
HEad  -8.29037 -58.8079 7.94487
LeftShoulder1  1.40823 -0.399905 -30.0101
LeftArm  10.2903 29.4338 -25.5284
LeftForeArm  5.75987 -9.00854 -15.2805
LeftHand  0.60058 -3.32379 -7.76105
RightShoulder  4.70912 4.27065 53.024
RightArm  52.6078 -1.12585 17.8404
RightForeArm  -8.2276 22.3891 5.90145
RightHand  0.926566 6.50503 8.65889
LeftUpLeg  -18.7475 10.3456 8.53695
LeftLeg  58.7121 2.68098 5.2913
LeftFoot  1.48081 -0.174578 1.47409
LeftToes  -2.158e-010 -1.26819e-010 -1.05346e-011
2267
root  -31.6382 38.4387 -61.43 157.769 77.4285 156.525
RightUpLeg  -1.64598 20.5134 10.2717
RightLeg  25.4997 -8.29008 -5.41234
RightFoot  -18.5594 -0.698793 -9.07043
RightToes  -5.28216e-011 1.2921e-014 -6.02303e-014
Spine  3.04303 -3.26777 0.689388
Spine1  0.581518 -3.66606 5.53666
HEad  -9.39026 -56.8728 8.40615
LeftShoulder1  1.30763 -0.10923 -30.1256
LeftArm  9.36935 31.8392 -26.3072
LeftForeArm  5.37136 -9.72635 -14.8418
LeftHand  0.647939 -3.65724 -8.05519
RightShoulder  5.04738 4.87228 52.7539
RightArm  52.2717 -1.20308 17.9857
RightForeArm  -6.889 23.8543 5.4445
RightHand  0.95398 6.56588 8.87538
LeftUpLeg  -19.1371 9.57369 7.64482
LeftLeg  48.6819 1.36247 2.08408
LeftFoot  0.298725 0.244338 -2.41542
LeftToes  -2.158e-010 -1.26819e-010 -1.05346e-011
